<svg width="218" height="142" viewBox="0 0 218 142" fill="none" xmlns="http://www.w3.org/2000/svg">
<path d="M159.427 141.412C159.462 141.206 159.542 140.824 159.524 140.819C158.279 140.491 158.224 139.332 157.843 138.416C157.718 138.114 157.713 137.765 157.632 137.441C157.509 136.934 157.718 136.697 158.216 136.685C159.467 136.659 160.718 136.604 161.968 136.64C162.199 136.647 162.466 137 162.635 137.248C162.979 137.755 163.251 138.401 164.008 138.214C164.725 138.035 165.069 137.499 165.114 136.734C165.177 135.695 165.311 134.659 165.428 133.479C165.169 133.62 165.035 133.658 164.95 133.745C163.575 135.117 161.946 135.193 160.242 134.589C158.601 134.006 157.845 132.592 157.774 131.03C157.606 127.339 157.599 123.637 157.657 119.941C157.671 119.074 158.068 118.14 158.515 117.367C159.793 115.151 163.081 114.735 165.03 116.456C165.169 116.578 165.341 116.662 165.593 116.824C165.5 115.741 166.056 115.626 166.875 115.696C167.759 115.773 168.654 115.721 169.545 115.703C169.962 115.694 170.139 115.831 170.134 116.279C170.076 122.762 170.053 129.246 169.959 135.728C169.944 136.769 169.755 137.848 169.411 138.827C169.162 139.537 168.572 140.157 168.039 140.727C167.782 141.003 167.603 141.125 167.947 141.412C165.107 141.412 162.267 141.412 159.427 141.412ZM165.097 125.064C165.094 125.064 165.092 125.064 165.089 125.064C165.089 123.727 165.055 122.391 165.101 121.057C165.127 120.257 164.596 119.876 164.043 119.612C163.431 119.318 163.066 119.928 162.798 120.327C162.553 120.692 162.432 121.205 162.424 121.654C162.382 123.934 162.377 126.218 162.404 128.499C162.409 128.983 162.484 129.536 162.733 129.926C162.97 130.295 163.497 130.721 163.864 130.694C164.247 130.666 164.654 130.17 164.928 129.79C165.101 129.551 165.086 129.15 165.089 128.823C165.107 127.568 165.097 126.317 165.097 125.064Z" fill="white"/>
<path d="M21.4248 141.412C21.4248 140.224 21.4248 139.035 21.4248 137.945C21.5952 137.813 21.6353 137.755 21.6804 137.75C23.5984 137.566 23.7321 137.431 23.7337 135.449C23.7438 129.186 23.7438 122.92 23.7488 116.657C23.7488 116.383 23.7488 116.111 23.7488 115.725C25.2625 115.725 26.7026 115.7 28.1411 115.76C28.2998 115.766 28.5638 116.268 28.5655 116.54C28.5939 120.438 28.6022 124.336 28.5822 128.232C28.5655 131.349 28.5605 134.468 28.4335 137.583C28.385 138.777 28.1344 140.009 27.0401 140.827C26.9265 140.912 26.9699 141.21 26.9399 141.409C25.1004 141.412 23.2626 141.412 21.4248 141.412Z" fill="white"/>
<path d="M90.9842 0.880783C90.8572 1.27507 90.6801 1.70779 90.5815 2.15721C90.2891 3.47708 89.8949 4.79361 89.7913 6.13186C89.686 7.52023 90.9424 9.02722 92.1887 9.28451C92.142 9.08069 92.1403 8.88354 92.0568 8.72983C90.5899 6.00823 91.2114 3.3451 92.3007 0.710369C92.6315 -0.0899064 92.9606 -0.170101 93.7475 0.250921C95.6856 1.29011 96.9069 2.82049 96.7532 5.1194C96.6379 6.83524 97.2677 8.28041 98.1516 9.6504C102.25 16.0058 106.366 22.3512 110.478 28.7C111.883 30.8702 113.277 33.0505 114.723 35.1941C114.894 35.4463 115.363 35.6184 115.696 35.6218C120.788 35.6719 125.881 35.6719 130.971 35.7187C134.951 35.7554 138.931 35.9192 142.909 35.8824C145.712 35.8557 148.37 36.3769 150.941 37.4128C153.369 38.3902 155.108 40.1645 155.967 42.5904C156.786 44.9043 157.3 47.3268 157.907 49.7126C158.159 50.7034 158.306 51.7225 158.521 52.8402C159.399 52.5378 160.149 52.055 160.586 51.2263C162.225 48.1221 166.944 47.3402 169.725 50.2506C170.609 51.1762 170.582 52.0149 169.63 52.8954C167.866 54.526 165.831 54.82 163.575 54.1735C163.315 54.0983 162.956 54.2871 162.67 54.4174C162.506 54.4909 162.399 54.6914 162.269 54.8367C161.813 55.3463 161.121 55.8141 161.475 56.611C161.895 57.5583 162.493 58.4104 163.584 58.7162C163.849 58.7897 164.133 58.8314 164.409 58.8281C166.379 58.8047 167.483 59.9558 168.116 61.6416C168.987 63.9606 169.475 66.358 169.769 68.8357C170.158 72.1287 170.512 75.4117 170.444 78.7297C170.382 81.7404 169.879 84.6525 168.32 87.2888C167.06 89.4224 165.346 90.8007 162.762 91.2284C160.043 91.6795 158.07 90.6537 156.331 88.8025C155.877 88.3197 155.561 87.7082 155.113 87.2153C154.911 86.9931 154.52 86.7626 154.256 86.8043C153.384 86.943 152.522 87.1752 151.671 87.4225C150.286 87.8235 149.683 88.851 149.56 90.2143C149.337 92.6786 149.179 95.1496 148.888 97.6056C148.739 98.8619 148.358 100.09 148.066 101.403C148.302 101.435 148.507 101.482 148.713 101.485C149.576 101.502 150.438 101.503 151.302 101.512C158.01 101.575 164.72 101.604 171.428 101.711C178.385 101.821 185.34 102.005 192.297 102.16C197.424 102.274 202.55 102.392 207.677 102.512C209.647 102.559 211.617 102.594 213.587 102.676C214.634 102.72 215.678 102.848 216.731 103.111C214.561 103.111 212.389 103.067 210.219 103.117C200.061 103.351 189.904 103.627 179.748 103.856C175.518 103.951 171.287 103.973 167.055 104.019C155.534 104.146 144.013 104.334 132.49 104.379C116.174 104.444 99.8557 104.414 83.5394 104.402C75.9109 104.397 68.2807 104.349 60.6522 104.297C57.5363 104.277 54.4221 104.202 51.3079 104.148C45.2999 104.046 39.2904 103.963 33.2824 103.832C26.2721 103.679 19.2617 103.497 12.2531 103.299C8.16983 103.184 4.08826 103.014 0 102.715C20.5315 102.294 41.0613 101.873 61.5043 101.453C61.4525 98.5077 61.384 95.5506 61.3639 92.5934C61.3589 91.9819 61.0799 91.7848 60.5687 91.8031C59.5679 91.8399 58.5688 91.9685 57.5697 91.9585C56.4136 91.9468 55.2407 91.9234 54.113 91.7079C53.6419 91.6177 53.0805 91.1014 52.8817 90.6403C51.6203 87.7049 51.6002 84.6341 52.18 81.5516C52.2919 80.9551 52.6829 80.3771 53.0638 79.8809C53.2626 79.6219 53.712 79.4431 54.0562 79.4298C54.9149 79.3947 55.7804 79.4682 56.6408 79.51C58.3165 79.5902 59.187 78.7698 59.187 77.0891C59.187 72.4946 59.182 67.9001 59.182 63.3056C59.182 61.6349 59.1803 59.9642 59.1887 58.2935C59.1937 57.0488 59.8904 56.3671 61.1651 56.3872C64.418 56.439 67.6709 56.5459 70.9238 56.5526C73.7557 56.5576 76.5859 56.454 79.4177 56.4022C80.0142 56.3922 80.6123 56.4005 81.4878 56.4005C80.9648 55.9578 80.6056 55.6621 80.2548 55.3547C79.5865 54.7716 78.8831 54.2219 78.2833 53.5753C78.0795 53.3565 78.0077 52.8269 78.1313 52.5562C78.2198 52.3624 78.7478 52.2622 79.0569 52.3006C79.6567 52.3741 80.2397 52.5846 80.8345 52.7199C82.1093 53.0106 83.3105 52.7884 84.4767 52.2254C85.4624 51.7492 86.0639 51.0275 86.0906 49.9031C86.114 48.8873 85.5059 48.0202 84.4901 47.5808C82.2897 46.6285 81.9004 46.0955 82.2479 43.703C82.8628 39.4845 81.7651 35.6051 80.0927 31.8226C79.5765 30.6564 78.9683 29.527 78.3619 28.4026C78.0979 27.9147 78.0929 27.5488 78.3685 27.0309C79.8822 24.1857 81.3307 21.3054 82.816 18.4451C82.9363 18.2129 83.1268 17.9455 83.3523 17.847C85.0999 17.0834 85.576 15.66 85.5209 13.9041C85.4658 12.1314 85.1199 10.4774 84.2662 8.87352C82.9847 6.46099 83.4893 2.82049 85.2185 1.23999C86.1357 0.402957 87.1983 -0.00804095 88.5048 0.443054C89.2332 0.690321 90.0452 0.722064 90.9842 0.880783ZM88.0103 56.5308C88.3427 56.5308 88.5533 56.5342 88.7654 56.5308C90.792 56.4857 92.8203 56.4055 94.8469 56.4072C95.9512 56.4072 97.0572 56.5158 98.1566 56.6244C99.4564 56.7531 100.004 56.2986 100.14 54.9988C100.36 52.902 100.638 50.8136 100.866 48.7186C101.077 46.7872 101.256 44.8525 101.448 42.9195C101.513 42.2579 101.46 41.5578 101.662 40.9414C102.215 39.2573 101.872 37.7586 101.125 36.2082C98.7363 31.2545 96.4207 26.2657 94.0817 21.2886C92.6165 18.1728 91.178 15.0435 89.6894 11.9393C89.2349 10.992 88.6635 10.9252 87.9952 11.702C87.7847 11.946 87.7012 12.362 87.6861 12.7045C87.5993 14.6525 87.9267 16.4837 88.9475 18.2145C89.5089 19.1685 89.7979 20.2979 90.1204 21.3739C90.5481 22.804 90.8639 24.2675 91.2682 25.706C91.7878 27.5622 91.8346 29.3115 90.4462 30.8769C89.8397 31.5602 89.3201 32.3238 88.8072 33.0839C86.819 36.0278 85.7047 39.2005 86.1825 42.8276C86.3446 44.0639 86.9159 44.8358 88.0253 45.3754C88.7287 45.7179 89.4655 46.1791 89.9333 46.7839C91.5004 48.8155 91.1846 51.0225 90.1471 53.1493C89.5791 54.3004 88.7738 55.3363 88.0103 56.5308ZM93.7509 87.3507C97.8141 87.3507 101.877 87.349 105.94 87.3507C112.286 87.3557 118.631 87.3657 124.977 87.369C126.101 87.369 126.459 87.0032 126.475 85.8687C126.509 83.498 126.484 83.4746 124.073 83.4779C109.267 83.503 94.4593 83.5331 79.6533 83.5498C73.9762 83.5564 68.2974 83.5197 62.6203 83.5297C62.2093 83.5297 61.7064 83.6366 61.4107 83.8873C60.978 84.2548 61.0097 86.4852 61.4057 86.938C61.5811 87.1385 61.9153 87.2705 62.1909 87.2972C62.7974 87.359 63.4139 87.3456 64.0254 87.3456C73.9344 87.349 83.8418 87.349 93.7509 87.3507ZM116.967 40.0609C117.139 40.3549 117.24 40.5721 117.378 40.7609C120.098 44.4532 122.81 48.1488 125.566 51.8127C125.785 52.1034 126.305 52.3123 126.686 52.3156C130.525 52.349 134.366 52.3323 138.205 52.324C138.418 52.324 138.628 52.2839 138.819 52.2638C138.819 48.1488 138.819 44.1024 138.819 40.0592C131.529 40.0609 124.308 40.0609 116.967 40.0609ZM93.7609 74.0367C93.7609 74.045 93.7609 74.0534 93.7609 74.0617C88.1673 74.0617 82.5737 74.0434 76.9818 74.0701C74.5275 74.0818 74.5292 73.5355 74.5493 76.5695C74.556 77.5636 74.7765 77.7691 75.7889 77.8192C76.0396 77.8326 76.2902 77.8342 76.5408 77.8342C87.9769 77.8543 99.4146 77.8593 110.851 77.9061C113.094 77.9161 113.186 77.8392 113.153 75.5871C113.131 74.2121 112.969 74.035 111.628 74.035C105.67 74.0367 99.7154 74.0367 93.7609 74.0367ZM93.9397 68.3078C93.9397 68.3128 93.9397 68.3178 93.9397 68.3228C99.59 68.3228 105.242 68.3278 110.892 68.3211C113.404 68.3178 113.116 68.5049 113.128 66.069C113.135 64.7024 112.971 64.5386 111.594 64.5386C99.707 64.5386 87.8198 64.542 75.9326 64.5453C74.7932 64.5453 74.5777 64.7642 74.5359 65.9036C74.5275 66.1542 74.5309 66.4048 74.5309 66.6554C74.5292 68.2593 74.576 68.3094 76.1498 68.3094C82.0792 68.3078 88.0086 68.3078 93.9397 68.3078ZM147.45 69.0512C146.405 66.7958 145.226 64.7792 143.218 63.3992C142.061 62.6056 140.773 62.1829 139.352 62.5705C137.99 62.9414 136.927 63.7718 136.023 64.8277C133.768 67.4674 132.388 70.5733 131.618 73.893C130.665 78.0013 129.989 82.1731 129.19 86.3165C129.083 86.8728 129.235 87.3072 129.743 87.5879C130.876 88.2111 132.052 88.1142 133.175 87.638C133.486 87.506 133.736 86.9864 133.811 86.6055C133.923 86.0425 133.786 85.4327 133.87 84.8596C134.359 81.5065 134.802 78.1433 135.417 74.8136C135.895 72.2239 136.957 69.8248 138.488 67.6645C140.167 65.2955 142.561 64.9329 144.828 66.7156C145.712 67.4106 146.514 68.2109 147.45 69.0512ZM111.1 92.0922C110.976 92.0521 110.854 92.012 110.73 91.9702C110.321 92.5115 109.888 93.0345 109.507 93.5942C108.278 95.4019 106.746 96.7769 104.507 97.1628C103.334 97.365 102.166 97.644 100.985 97.7392C98.1449 97.9648 95.3264 97.8628 92.9823 95.9515C91.8229 95.0059 90.8154 93.8732 89.7178 92.8056C89.7178 95.5639 89.7178 98.4042 89.7178 101.263C96.8384 101.263 104.029 101.263 111.101 101.263C111.1 98.1669 111.1 95.1295 111.1 92.0922ZM143.264 83.1354C143.169 82.4554 143.089 81.9943 143.042 81.5299C142.807 79.2376 142.165 77.0674 141.059 75.0424C140.954 74.8503 140.745 74.7167 140.583 74.5563C140.422 74.73 140.207 74.8804 140.112 75.0842C139.925 75.4852 139.773 75.9079 139.664 76.3373C138.378 81.3929 137.776 86.4969 138.742 91.6845C139.081 93.5089 139.445 95.33 139.895 97.1294C140.05 97.7526 140.389 98.4042 140.828 98.8703C142.307 100.441 143.56 100.437 144.399 98.4643C144.885 97.3215 145.231 96.1086 145.538 94.9023C146.394 91.5492 146.569 88.1326 146.397 84.6859C146.242 81.57 146.013 78.4641 144.848 75.5303C144.494 74.6381 143.946 73.8145 143.403 73.0159C143.259 72.8037 142.8 72.807 142.484 72.7118C142.491 72.9908 142.427 73.2965 142.516 73.5471C142.81 74.3825 143.264 75.1744 143.47 76.0265C144.656 80.9451 145.336 85.9138 144.369 90.9561C144.02 92.7772 143.488 94.5665 142.969 96.3492C142.88 96.6532 142.422 96.8487 142.135 97.0943C142.103 96.7719 142.008 96.4394 142.051 96.127C142.198 95.0727 142.397 94.0269 142.576 92.9676C141.037 92.9025 140.62 92.5349 140.055 91.1649C139.311 89.3622 139.408 87.506 139.662 85.6649C139.768 84.8997 140.185 84.1412 140.591 83.4595C141.218 82.412 142.163 82.5323 143.264 83.1354ZM93.5086 59.6584C93.5086 59.6518 93.5086 59.6467 93.5086 59.6401C85.13 59.6401 76.7496 59.6384 68.3709 59.6434C67.8697 59.6434 67.3702 59.6919 66.869 59.6969C66.2992 59.7019 66.0938 60.1162 66.1823 60.5239C66.2525 60.8447 66.5833 61.1905 66.889 61.3559C67.1513 61.4979 67.5423 61.4043 67.8764 61.4043C74.2786 61.4043 80.6825 61.3927 87.0847 61.406C97.9678 61.4277 108.853 61.4678 119.736 61.4962C120.364 61.4979 120.813 60.9716 120.807 60.2582C120.802 59.6016 120.287 59.7269 119.898 59.6935C119.538 59.6618 119.174 59.6601 118.813 59.6601C110.38 59.6584 101.944 59.6584 93.5086 59.6584ZM124.591 99.6672C124.591 99.6656 124.591 99.6622 124.591 99.6605C126.926 99.6605 129.26 99.6472 131.596 99.6706C132.142 99.6756 132.346 99.4684 132.341 98.9455C132.331 97.6106 132.341 96.2773 132.345 94.9424C132.346 94.4161 132.157 94.1338 131.559 94.1355C126.972 94.1472 122.385 94.1371 117.798 94.1254C117.136 94.1238 116.827 94.4178 116.83 95.0794C116.837 96.2473 116.83 97.4151 116.822 98.5829C116.817 99.3264 117.116 99.6906 117.918 99.6789C120.143 99.6472 122.367 99.6672 124.591 99.6672ZM75.5617 94.8088C75.5617 94.8104 75.5617 94.8104 75.5617 94.8121C74.6712 94.8121 73.7791 94.8104 72.8886 94.8121C71.4133 94.8171 69.9364 94.8305 68.4612 94.8305C67.8046 94.8305 67.4236 95.0443 67.4504 95.7995C67.4788 96.6315 67.4036 97.4686 67.3919 98.3022C67.3718 99.7274 67.5974 99.9663 69.0125 99.9713C73.4399 99.983 77.8673 99.9847 82.2947 99.988C83.3289 99.988 83.7917 99.567 83.8485 98.4977C83.8903 97.7208 83.8903 96.9389 83.8535 96.162C83.8017 95.056 83.5244 94.8121 82.4117 94.8104C80.1278 94.8054 77.8439 94.8088 75.5617 94.8088ZM147.54 54.0782C149.969 53.5302 152.295 53.0157 154.61 52.461C154.759 52.4259 154.931 52.0884 154.931 51.8913C154.931 48.9525 154.395 46.1473 152.786 43.6229C151.847 42.1493 150.514 41.2003 148.851 40.7175C147.854 40.4284 147.565 40.6573 147.561 41.6715C147.55 45.4857 147.545 49.2983 147.538 53.1126C147.54 53.4133 147.54 53.714 147.54 54.0782ZM165.406 61.3542C165.046 61.1838 164.782 61.0385 164.504 60.9315C162.369 60.1029 161.469 60.4153 160.391 62.4753C159.93 63.3558 159.551 64.2914 159.246 65.237C158.181 68.5584 158.107 72.0168 157.953 75.4568C157.855 77.6705 158.257 78.0097 160.443 77.6872C161.505 77.5302 162.24 76.506 162.068 75.4518C161.998 75.0157 161.923 74.5696 161.941 74.1319C162.038 71.8831 162.053 69.6243 162.312 67.3939C162.563 65.2387 163.288 63.2221 165.087 61.7853C165.191 61.7034 165.251 61.5681 165.406 61.3542ZM99.8306 27.183C99.9259 27.1696 100.021 27.1546 100.116 27.1412C100.116 26.3493 100.111 25.5573 100.118 24.7654C100.121 24.3076 99.991 23.7697 100.681 23.6561C101.272 23.5608 101.688 23.6594 102.034 24.2826C104.246 28.2639 106.48 32.2352 108.771 36.1731C112.095 41.8886 115.475 47.5708 118.832 53.2679C119.156 53.8193 119.49 54.3656 119.792 54.927C120.038 55.3831 120.419 55.5368 120.812 55.2544C120.947 55.1558 120.907 54.6613 120.8 54.4124C120.603 53.9579 120.29 53.5553 120.036 53.1243C116.805 47.646 113.577 42.1643 110.343 36.6877C107.068 31.1409 103.804 25.5874 100.499 20.059C99.6017 18.5587 98.5843 17.1319 97.5952 15.6884C97.4532 15.4795 97.1692 15.3693 96.952 15.2122C96.8868 15.2857 96.82 15.3576 96.7548 15.4311C96.9353 15.7318 97.1274 16.0275 97.2911 16.3366C97.5367 16.7994 97.804 17.2589 97.9912 17.7467C98.2802 18.5069 98.1716 18.6573 97.3847 18.5888C96.8534 18.542 96.5477 18.7174 96.3639 19.2153C96.14 19.8251 96.4341 20.2344 96.84 20.6053C97.2577 20.9846 97.6102 20.8025 98.0162 20.5051C99.2609 19.5962 99.3211 19.6246 100.055 21.0113C100.171 21.2318 100.334 21.4474 100.379 21.6846C100.442 22.0254 100.562 22.4949 100.397 22.7071C100.121 23.0613 99.6803 23.2417 99.139 22.9677C98.7914 22.7923 98.332 22.8357 97.6787 22.7489C98.4807 24.3945 99.1557 25.7879 99.8306 27.183ZM124.878 66.5335C124.953 64.4233 123.141 62.482 121.027 62.4118C118.944 62.3433 116.937 64.2279 116.835 66.3497C116.742 68.3145 118.631 70.3544 120.599 70.4129C123.047 70.4864 124.793 68.9025 124.878 66.5335ZM109.591 55.373C109.626 55.2544 109.663 55.1375 109.698 55.0188C109.421 54.3907 109.193 53.7341 108.848 53.146C108.609 52.74 108.273 52.2672 107.868 52.1068C106.079 51.3967 105.349 50.0485 105.498 48.2407C105.641 46.4965 105.128 44.9594 104.353 43.4625C104.124 43.0214 103.87 42.592 103.558 42.0307C103.399 44.4298 103.237 46.6168 103.117 48.8071C103.03 50.3843 102.972 51.9648 102.96 53.5436C102.953 54.5377 103.583 55.2928 104.482 55.368C106.174 55.5067 107.887 55.3864 109.591 55.373ZM64.956 62.5521C63.2686 62.5672 61.6329 64.283 61.6663 66.0022C61.6997 67.8032 63.3354 69.4589 65.0663 69.4489C66.8706 69.4372 68.7185 67.6579 68.6817 65.9654C68.6433 64.1761 66.8522 62.5354 64.956 62.5521ZM66.0436 75.6088C66.052 75.6088 66.062 75.6088 66.0704 75.6088C66.0704 74.5229 66.072 73.4369 66.0704 72.3526C66.067 71.0745 65.9267 70.9358 64.6335 70.9308C64.4397 70.9308 64.2426 70.9325 64.0505 70.9592C62.9912 71.0995 62.8409 71.2733 62.8409 72.3426C62.8409 74.2639 62.8375 76.1835 62.8409 78.1049C62.8442 79.9611 63.0413 80.1482 64.8975 80.093C65.0362 80.088 65.1749 80.078 65.3135 80.0713C65.8114 80.0446 66.0587 79.8174 66.0503 79.2844C66.0303 78.0598 66.0436 76.8335 66.0436 75.6088ZM119.386 75.7525C119.391 75.7525 119.396 75.7525 119.401 75.7525C119.401 76.8335 119.37 77.9161 119.422 78.9954C119.437 79.3128 119.654 79.8608 119.836 79.8859C120.606 79.9911 121.46 80.1131 122.156 79.8708C122.509 79.7472 122.746 78.8667 122.773 78.3154C122.852 76.7098 122.793 75.0993 122.796 73.4903C122.798 72.0936 122.415 71.7177 121.015 71.7645C120.85 71.7695 120.685 71.7962 120.518 71.8046C119.701 71.8464 119.345 72.264 119.38 73.091C119.416 73.9749 119.386 74.8637 119.386 75.7525ZM164.9 83.4462C165.027 83.4228 165.154 83.3994 165.283 83.3743C165.381 83.0686 165.518 82.7679 165.575 82.4538C166.215 78.8667 166.212 75.2764 165.547 71.6943C165.485 71.3585 165.228 71.0594 165.061 70.7437C164.85 71.0695 164.638 71.3936 164.432 71.7227C164.406 71.7645 164.421 71.8313 164.412 71.8865C163.901 75.2012 163.918 78.5242 164.312 81.8456C164.372 82.3953 164.696 82.9132 164.9 83.4462ZM150.883 83.5598C150.936 84.5438 151.12 84.8145 152.072 84.4787C153.087 84.1212 154.173 83.9758 155.217 83.6968C156.366 83.3894 157.517 83.0786 158.638 82.686C159.303 82.4538 159.505 81.7738 159.283 81.0938C159.038 80.342 158.473 80.7396 158.107 80.8248C155.977 81.321 153.862 81.8907 151.738 82.4187C151.12 82.5724 150.861 82.9483 150.883 83.5598ZM149.834 66.9461C149.951 66.9194 150.068 66.8927 150.183 66.8659C150.006 63.4259 149.829 59.9876 149.652 56.5726C148.47 56.439 148.28 56.5676 148.27 57.4614C148.246 59.742 148.211 62.0242 148.236 64.3047C148.25 65.4843 149.017 66.2494 149.834 66.9461ZM114.449 52.1803C114.227 52.1803 114.003 52.1703 113.781 52.182C112.622 52.2421 112.458 52.5428 113.006 53.5737C114.048 55.5351 115.226 55.7189 117.181 55.3664C117.659 55.2812 117.747 55.0155 117.615 54.5845C117.126 52.9839 116.077 52.1786 114.449 52.1803ZM82.8544 28.5312C83.2922 27.2982 83.6798 25.8614 84.3029 24.5332C85.1283 22.7756 86.1424 21.1082 87.063 19.3957C87.2067 19.1284 87.2802 18.8227 87.4155 18.4534C84.7975 19.1401 81.6532 26.4094 82.8544 28.5312ZM87.3052 9.42318C86.9861 8.04317 86.5885 6.67986 86.3713 5.28815C86.1357 3.78784 86.9627 2.51809 87.758 1.17817C86.0873 1.37699 85.1333 2.89066 85.0397 5.09267C84.9478 7.25292 85.8266 9.1425 87.3052 9.42318ZM102.305 27.7042C102.211 28.5095 102.166 29.111 102.069 29.7041C101.76 31.6003 102.534 32.8166 104.378 33.2894C104.823 33.4031 105.127 33.2945 104.998 32.7648C104.888 32.3121 104.776 31.8376 104.549 31.4366C103.875 30.2487 103.144 29.0893 102.305 27.7042ZM167.533 52.6949C167.974 52.344 168.619 52.0433 168.861 51.5471C168.987 51.2915 168.499 50.5029 168.105 50.279C167.492 49.9298 166.73 49.7845 166.015 49.6959C165.662 49.6525 165.269 49.9298 164.894 50.0635C165.046 50.421 165.124 50.842 165.365 51.1227C165.754 51.5788 166.235 51.9598 166.706 52.3373C166.89 52.4844 167.151 52.5345 167.533 52.6949ZM106.529 37.7152C106.161 37.8706 105.446 37.5498 105.451 38.4319C105.458 39.3274 106.25 40.1578 107.133 40.1544C107.9 40.1511 108.971 39.436 108.943 38.9465C108.909 38.3584 107.646 37.6968 106.529 37.7152ZM94.785 17.1503C95.6455 16.345 95.7474 16.2113 95.4517 15.6333C94.8602 14.4738 94.2237 13.336 93.5504 12.2233C93.4017 11.9777 93.0275 11.8691 92.7568 11.697C92.6783 11.7672 92.5997 11.8374 92.5212 11.9075C92.847 13.8222 94.0717 15.3576 94.785 17.1503ZM106.963 36.0896C106.549 35.3494 104.699 34.8549 103.999 35.2592C104.412 36.5758 105.463 36.8865 106.963 36.0896Z" fill="white"/>
<path d="M126.749 115.786C128.455 115.786 129.995 115.786 131.669 115.786C130.456 122.362 129.26 128.848 128.057 135.37C126.574 135.37 125.185 135.375 123.797 135.369C123.257 135.365 123.04 135.075 122.97 134.538C122.669 132.226 122.342 129.917 121.997 127.61C121.859 126.683 121.657 125.764 121.304 124.828C121.152 125.694 121 126.561 120.85 127.426C120.42 129.884 119.984 132.34 119.568 134.799C119.483 135.3 119.204 135.397 118.751 135.387C117.639 135.364 116.523 135.347 115.411 135.397C114.72 135.429 114.476 135.098 114.376 134.493C114.1 132.823 113.801 131.155 113.515 129.486C113.027 126.644 112.541 123.801 112.06 120.957C111.769 119.241 111.487 117.524 111.185 115.714C112.83 115.714 114.327 115.686 115.819 115.744C116.043 115.753 116.411 116.152 116.442 116.404C116.666 118.226 116.813 120.055 116.999 121.881C117.194 123.801 117.405 125.717 117.794 127.645C118.29 123.685 118.786 119.726 119.286 115.739C120.731 115.739 122.006 115.753 123.279 115.733C123.804 115.724 123.932 116.035 123.984 116.456C124.323 119.24 124.664 122.025 125.005 124.808C125.125 125.799 125.245 126.788 125.533 127.789C125.939 123.786 126.345 119.783 126.749 115.786Z" fill="white"/>
<path d="M20.891 135.354C19.2587 135.354 17.7935 135.379 16.3299 135.321C16.1512 135.314 15.8788 134.874 15.8387 134.607C15.5965 132.961 15.411 131.309 15.1938 129.568C14.3384 129.568 13.4546 129.528 12.5792 129.602C12.3954 129.617 12.1314 130.039 12.103 130.295C11.9443 131.732 11.8357 133.174 11.7388 134.617C11.7121 135.021 11.6703 135.342 11.1674 135.342C9.72724 135.341 8.2854 135.342 6.68652 135.342C6.83522 134.223 6.97222 133.167 7.1159 132.113C7.65387 128.121 8.18349 124.128 8.73817 120.139C9.15418 117.141 9.6153 114.151 10.023 111.152C10.0948 110.622 10.2802 110.46 10.8082 110.467C12.7279 110.489 14.6475 110.472 16.5672 110.45C17.0951 110.443 17.3658 110.592 17.4443 111.177C17.8586 114.288 18.3047 117.394 18.7575 120.498C19.0482 122.498 19.3874 124.489 19.6747 126.489C20.0874 129.391 20.4733 132.3 20.891 135.354ZM14.7912 125.266C14.427 121.9 14.0811 118.709 13.737 115.516C13.6718 115.521 13.6067 115.524 13.5432 115.529C13.2558 118.682 12.9684 121.836 12.671 125.084C13.3176 125.139 13.9642 125.194 14.7912 125.266Z" fill="white"/>
<path d="M46.8675 109.481C48.3811 109.481 49.8731 109.481 51.4837 109.481C51.4837 111.746 51.4837 114.015 51.4837 116.284C51.4837 118.561 51.4837 120.839 51.4837 123.114C51.5405 123.139 51.5989 123.166 51.6558 123.191C51.7593 123.039 51.903 122.9 51.9615 122.731C52.7066 120.553 53.4334 118.366 54.1886 116.191C54.2537 116 54.4876 115.736 54.648 115.733C56.2218 115.698 57.7957 115.713 59.5081 115.713C58.8465 117.138 58.2568 118.413 57.662 119.684C57.1909 120.69 56.7063 121.691 56.2419 122.7C56.1684 122.86 56.0865 123.072 56.1316 123.226C57.2076 126.927 58.3002 130.622 59.3879 134.32C59.4731 134.607 59.5332 134.903 59.6502 135.37C57.9611 135.37 56.3622 135.404 54.77 135.329C54.5628 135.319 54.2855 134.774 54.2069 134.438C53.7492 132.465 53.3415 130.48 52.9155 128.499C52.8771 128.318 52.8169 128.141 52.7668 127.962C52.6816 127.939 52.5947 127.916 52.5095 127.892C52.1753 128.846 51.6775 129.777 51.5472 130.758C51.3767 132.044 51.482 133.369 51.5004 134.677C51.5071 135.152 51.4018 135.397 50.8588 135.382C49.7461 135.352 48.6317 135.369 47.519 135.384C47.0546 135.391 46.7923 135.262 46.794 134.731C46.8073 126.382 46.809 118.033 46.814 109.685C46.809 109.656 46.8224 109.63 46.8675 109.481Z" fill="white"/>
<path d="M217.048 118.508C215.561 118.508 214.121 118.528 212.683 118.479C212.524 118.474 212.27 118.084 212.25 117.853C212.188 117.19 212.255 116.516 212.21 115.851C212.187 115.504 212.123 115.09 211.916 114.842C211.679 114.558 211.171 114.191 210.938 114.279C210.509 114.441 210.053 114.847 209.874 115.265C209.679 115.719 209.766 116.303 209.766 116.83C209.759 121.116 209.747 125.403 209.774 129.688C209.777 130.165 209.893 130.707 210.145 131.1C210.648 131.887 211.542 131.862 211.919 131.018C212.213 130.36 212.262 129.578 212.347 128.843C212.41 128.3 212.359 127.744 212.359 127.171C213.979 127.171 215.521 127.171 217.321 127.171C217.107 128.947 217.072 130.679 216.652 132.315C216.183 134.149 214.788 135.32 212.898 135.554C211.513 135.726 210.045 135.758 208.686 135.486C206.392 135.028 204.971 133.133 204.912 130.42C204.809 125.552 204.817 120.68 204.899 115.811C204.936 113.584 205.773 111.614 207.981 110.677C210.053 109.797 212.215 109.795 214.285 110.742C216.053 111.551 216.786 113.157 217.023 114.958C217.169 116.074 217.048 117.223 217.048 118.508Z" fill="white"/>
<path d="M146.935 135.376C145.497 135.376 144.137 135.36 142.777 135.382C142.108 135.392 142.195 134.949 142.195 134.535C142.192 129.917 142.189 125.298 142.185 120.68C142.184 119.048 142.185 117.417 142.185 115.733C143.57 115.733 144.957 115.681 146.334 115.776C146.613 115.795 146.853 116.363 147.186 116.769C147.189 116.767 147.375 116.673 147.515 116.533C148.88 115.175 150.591 115.183 152.183 115.713C153.698 116.216 154.398 117.611 154.445 119.203C154.534 122.232 154.569 125.263 154.609 128.292C154.637 130.405 154.649 132.52 154.634 134.634C154.632 134.868 154.417 135.297 154.29 135.302C152.796 135.349 151.301 135.332 149.725 135.332C149.725 134.879 149.727 134.55 149.725 134.221C149.692 129.799 149.665 125.375 149.612 120.952C149.608 120.651 149.498 120.247 149.288 120.078C148.975 119.826 148.43 119.514 148.158 119.631C147.567 119.886 147.042 120.356 147.039 121.143C147.03 123.396 147 125.65 146.992 127.902C146.985 130.017 146.999 132.131 146.995 134.246C146.997 134.6 146.96 134.953 146.935 135.376Z" fill="white"/>
<path d="M96.9198 125.557C96.9198 124.026 96.853 122.491 96.9365 120.964C97.0418 119.043 97.7819 117.392 99.4794 116.338C100.009 116.009 100.636 115.711 101.242 115.656C102.535 115.541 103.87 115.419 105.138 115.618C107.492 115.987 109.27 118.286 109.315 120.88C109.368 124.025 109.482 127.182 109.271 130.313C109.061 133.444 107.429 135.472 103.651 135.696C102.747 135.75 101.8 135.688 100.921 135.476C98.5455 134.903 97.2239 133.212 96.9683 130.23C96.8363 128.683 96.9449 127.114 96.9449 125.555C96.9366 125.557 96.9282 125.557 96.9198 125.557ZM104.492 125.572C104.483 125.572 104.475 125.572 104.465 125.572C104.465 124.432 104.466 123.295 104.465 122.155C104.463 121.711 104.475 121.265 104.445 120.822C104.393 120.06 103.969 119.52 103.228 119.459C102.497 119.398 102.101 119.946 101.932 120.62C101.865 120.885 101.835 121.168 101.833 121.442C101.823 124.219 101.822 126.995 101.823 129.774C101.823 130.021 101.825 130.28 101.889 130.515C102.082 131.221 103.051 131.929 103.461 131.638C104.015 131.244 104.55 130.841 104.51 129.983C104.441 128.517 104.492 127.042 104.492 125.572Z" fill="white"/>
<path d="M43.2402 135.381C41.932 135.381 40.6806 135.442 39.4426 135.342C39.0784 135.312 38.751 134.821 38.4987 134.615C37.6867 134.943 36.8246 135.484 35.9024 135.625C33.3863 136.01 31.9478 134.769 31.353 132.166C31.0105 130.668 31.1375 129.007 31.3263 127.453C31.5852 125.309 33.6386 123.721 36.2232 123.385C36.691 123.325 37.1654 123.226 37.6316 123.251C38.2614 123.286 38.4736 123.036 38.4469 122.434C38.4151 121.741 38.4603 121.042 38.4268 120.349C38.3951 119.718 38.1846 119.218 37.4127 119.178C36.6609 119.14 36.574 119.683 36.4537 120.199C36.1547 121.487 36.1613 121.489 34.8699 121.485C34.0362 121.482 33.2008 121.455 32.3671 121.48C31.8191 121.495 31.6103 121.258 31.6337 120.737C31.774 117.549 33.4147 115.574 36.6459 115.491C37.3125 115.474 37.9824 115.522 38.6474 115.492C41.1217 115.379 43.2285 117.412 43.2736 120.083C43.3588 125.034 43.3053 129.986 43.307 134.938C43.307 135.043 43.2769 135.152 43.2402 135.381ZM38.6841 128.482C38.6173 128.467 38.5521 128.45 38.4853 128.435C38.4853 127.991 38.5321 127.54 38.4636 127.107C38.4352 126.925 38.1612 126.644 37.9991 126.644C36.9382 126.643 36.0611 127.446 35.9224 128.504C35.8623 128.972 35.752 129.463 35.8372 129.909C35.9325 130.399 36.1346 130.933 36.4587 131.297C37.0218 131.929 37.6383 131.85 37.9674 131.072C38.3132 130.255 38.4536 129.349 38.6841 128.482Z" fill="white"/>
<path d="M69.6876 128.905C70.2439 128.905 70.802 128.92 71.3583 128.9C71.8528 128.883 72.0717 129.074 72.04 129.586C72.0166 129.974 72.0182 130.37 72.0784 130.753C72.1803 131.406 72.5696 131.822 73.2596 131.815C73.8995 131.81 74.0565 131.331 74.1467 130.799C74.3405 129.653 73.8844 128.821 72.9806 128.143C71.6256 127.129 70.1921 126.187 68.9875 125.014C66.9827 123.064 66.9326 119.136 68.8238 117.078C69.3618 116.491 70.1404 115.898 70.8855 115.778C72.314 115.546 73.8243 115.461 75.2528 115.661C77.1206 115.923 78.4388 117.506 78.6961 119.388C78.793 120.102 78.8097 120.835 78.7629 121.554C78.7496 121.762 78.4054 122.107 78.1932 122.122C77.1674 122.195 76.1349 122.16 75.1074 122.199C74.4324 122.224 74.2253 121.93 74.3004 121.286C74.3456 120.909 74.3456 120.496 74.2353 120.139C74.0732 119.614 73.861 119.019 73.0942 119.231C72.5295 119.388 72.0049 120.272 72.3006 120.772C72.6815 121.42 73.1928 122.035 73.7742 122.513C74.673 123.251 75.7005 123.831 76.6328 124.533C78.6744 126.068 79.3477 128.175 79.0704 130.642C79.0119 131.165 78.94 131.693 78.7947 132.196C78.2985 133.91 77.1975 134.996 75.4382 135.441C73.9179 135.825 72.3942 135.852 70.8938 135.486C68.7303 134.958 67.4588 133.234 67.367 130.886C67.2901 128.91 67.2901 128.91 69.2732 128.903C69.4102 128.905 69.5489 128.905 69.6876 128.905Z" fill="white"/>
<path d="M179.092 135.317C179.092 127.069 179.092 118.844 179.092 110.552C180.697 110.552 182.268 110.552 183.944 110.552C183.944 117.365 183.944 124.162 183.944 131.087C185.947 131.087 187.846 131.087 189.88 131.087C189.744 132.565 189.622 133.907 189.494 135.317C186.05 135.317 182.644 135.317 179.092 135.317Z" fill="white"/>
<path d="M202.996 131.147C202.807 132.509 202.65 133.77 202.438 135.023C202.413 135.169 202.084 135.366 201.895 135.366C198.804 135.387 195.713 135.376 192.624 135.389C191.897 135.392 192.019 134.9 192.019 134.467C192.019 129.956 192.024 125.447 192.024 120.936C192.024 117.79 192.023 114.644 192.021 111.496C192.021 111.194 192.021 110.891 192.021 110.489C193.583 110.489 195.072 110.472 196.559 110.52C196.682 110.524 196.895 110.968 196.895 111.209C196.911 115.218 196.9 119.226 196.895 123.236C196.893 125.353 196.886 127.468 196.893 129.585C196.895 130.078 196.94 130.571 196.97 131.145C198.988 131.147 200.919 131.147 202.996 131.147Z" fill="white"/>
<path d="M87.9067 120.017C87.2084 120.017 86.6587 120.017 86.0205 120.017C86.0205 118.592 86.0205 117.215 86.0205 115.755C86.5869 115.73 87.1867 115.701 87.8867 115.669C87.8867 114.239 87.8867 112.836 87.8867 111.374C89.5558 111.374 91.1212 111.374 92.7585 111.374C92.7585 112.797 92.7585 114.177 92.7585 115.648C93.4519 115.678 94.0801 115.706 94.7901 115.736C94.7901 117.16 94.7901 118.58 94.7901 120.052C94.1235 120.052 93.4987 120.052 92.7819 120.052C92.7819 120.479 92.7819 120.862 92.7819 121.243C92.7769 124.138 92.7702 127.032 92.7669 129.927C92.7652 131.461 92.8137 131.508 94.3524 131.56C94.461 131.563 94.5696 131.576 94.7283 131.588C94.7283 132.729 94.7567 133.86 94.6999 134.986C94.6899 135.173 94.319 135.484 94.1018 135.498C92.8838 135.566 91.6508 135.668 90.4429 135.556C88.9443 135.417 87.9418 134.021 87.9285 132.216C87.9034 128.514 87.9118 124.812 87.9067 121.111C87.9067 120.78 87.9067 120.453 87.9067 120.017Z" fill="white"/>
<path d="M138.72 135.376C137.24 135.376 135.828 135.379 134.416 135.374C133.771 135.373 133.853 134.89 133.853 134.479C133.851 131.222 133.848 127.966 133.851 124.712C133.855 122.04 133.866 119.369 133.875 116.697C133.875 116.423 133.875 116.151 133.875 115.745C135.41 115.745 136.874 115.728 138.337 115.768C138.499 115.773 138.763 116.079 138.79 116.273C138.852 116.707 138.788 117.16 138.787 117.604C138.78 123.198 138.777 128.792 138.77 134.385C138.772 134.681 138.741 134.98 138.72 135.376Z" fill="white"/>
<path d="M61.4053 109.506C62.9139 109.506 64.2371 109.506 65.6238 109.506C65.532 112.557 65.4434 115.549 65.3482 118.688C64.2204 118.688 63.1478 118.707 62.0786 118.665C61.9366 118.66 61.6926 118.351 61.686 118.175C61.5757 115.318 61.4955 112.458 61.4053 109.506Z" fill="white"/>
<path d="M133.896 109.499C135.51 109.499 137.081 109.499 138.703 109.499C138.703 110.896 138.703 112.249 138.703 113.696C137.123 113.696 135.537 113.696 133.896 113.696C133.896 112.318 133.896 110.968 133.896 109.499Z" fill="white"/>
<path d="M23.7448 109.483C25.357 109.483 26.9008 109.483 28.498 109.483C28.498 110.906 28.498 112.278 28.498 113.812C27.0361 113.812 25.5776 113.825 24.1207 113.788C23.9904 113.785 23.7648 113.462 23.7615 113.284C23.7297 112.041 23.7448 110.798 23.7448 109.483Z" fill="white"/>
</svg>
