<svg width="30" height="29" viewBox="0 0 30 29" fill="none" xmlns="http://www.w3.org/2000/svg">
<path d="M8.7 0.5H21.3C25.84 0.5 29.5 4.06198 29.5 8.41V20.59C29.5 22.6823 28.6403 24.6925 27.1043 26.1773C25.5677 27.6627 23.4801 28.5 21.3 28.5H8.7C4.16003 28.5 0.5 24.938 0.5 20.59V8.41C0.5 6.31771 1.35966 4.30755 2.89568 2.82273C4.43228 1.33735 6.51986 0.5 8.7 0.5ZM8.4 2.4C6.84059 2.4 5.34178 2.99867 4.23411 4.06941C3.12587 5.14071 2.5 6.59739 2.5 8.12V20.88C2.5 24.0575 5.15497 26.6 8.4 26.6H21.6C23.1594 26.6 24.6582 26.0013 25.7659 24.9306C26.8741 23.8593 27.5 22.4026 27.5 20.88V8.12C27.5 4.94252 24.845 2.4 21.6 2.4H8.4ZM22.875 5.575C23.245 5.575 23.5967 5.71726 23.8533 5.96536C24.1094 6.21291 24.25 6.54498 24.25 6.8875C24.25 7.23002 24.1094 7.56209 23.8533 7.80964C23.5967 8.05774 23.245 8.2 22.875 8.2C22.505 8.2 22.1533 8.05774 21.8967 7.80964C21.6406 7.56209 21.5 7.23002 21.5 6.8875C21.5 6.54498 21.6406 6.21291 21.8967 5.96536C22.1533 5.71726 22.505 5.575 22.875 5.575ZM15 7.75C16.8619 7.75 18.6442 8.46513 19.9558 9.73297C21.2668 11.0002 22 12.7154 22 14.5C22 16.2846 21.2668 17.9998 19.9558 19.267C18.6442 20.5349 16.8619 21.25 15 21.25C13.1381 21.25 11.3558 20.5349 10.0442 19.267C8.73323 17.9998 8 16.2846 8 14.5C8 12.7154 8.73323 11.0002 10.0442 9.73297C11.3558 8.46513 13.1381 7.75 15 7.75ZM15 9.65C13.6793 9.65 12.4094 10.157 11.4705 11.0646C10.531 11.9727 10 13.2081 10 14.5C10 15.7919 10.531 17.0273 11.4705 17.9354C12.4094 18.843 13.6793 19.35 15 19.35C16.3207 19.35 17.5906 18.843 18.5295 17.9354C19.469 17.0273 20 15.7919 20 14.5C20 13.2081 19.469 11.9727 18.5295 11.0646C17.5906 10.157 16.3207 9.65 15 9.65Z" fill="white" stroke="white"/>
</svg>
