<svg width="31" height="26" viewBox="0 0 31 26" fill="none" xmlns="http://www.w3.org/2000/svg">
<path d="M9.41785 19.826C7.12961 19.7885 5.17257 18.3793 4.24945 16.3758C4.38805 16.3855 4.52767 16.3906 4.66778 16.3906C5.28976 16.3906 5.8994 16.3083 6.48005 16.1418L6.44284 15.1714C4.00985 14.6717 2.10303 12.5853 1.78992 9.97971C2.50983 10.2643 3.29775 10.4412 4.13432 10.4412H5.78439L4.41186 9.52528C2.83522 8.47317 1.80402 6.61221 1.80402 4.49647C1.80402 3.65739 1.97008 2.85255 2.27093 2.12506C5.47194 5.85173 10.0843 8.29043 15.2369 8.55932L15.8915 8.59348L15.7514 7.95314C15.6549 7.51227 15.5999 7.04339 15.5999 6.56118C15.5999 3.19606 18.2374 0.5 21.4273 0.5C23.1512 0.5 24.6603 1.20332 25.7365 2.41242L25.9297 2.62955L26.214 2.56905C27.2174 2.35553 28.1878 2.03379 29.1061 1.60316C28.6082 2.46225 27.9126 3.17859 27.0907 3.68947L27.4201 4.60982C28.156 4.51268 28.8786 4.35644 29.5798 4.14079C28.9683 4.86542 28.2831 5.51333 27.5322 6.06696L27.3158 6.22645L27.3295 6.49488C27.3436 6.77074 27.3437 7.03353 27.3437 7.32588C27.3437 15.798 21.0804 25.5 9.75048 25.5C6.96771 25.5 4.33165 24.8271 1.98827 23.6315C4.91439 23.527 7.59155 22.4634 9.7267 20.7125L10.7806 19.8483L9.41785 19.826Z" fill="white" stroke="white"/>
</svg>
