<svg width="30" height="29" viewBox="0 0 30 29" fill="none" xmlns="http://www.w3.org/2000/svg">
<path d="M21.43 15.0874L20.835 18.8092H17.84V19.3092M21.43 15.0874L12.16 28.9154C5.23633 27.625 0 21.6963 0 14.5874C0 6.53665 6.74999 0 15 0C23.25 0 30 6.53665 30 14.5874C30.008 18.0604 28.7364 21.4219 26.4149 24.0648C24.2032 26.5827 21.1775 28.2904 17.84 28.9149V28.4059M21.43 15.0874H21.51V14.5874L21.0162 14.5084L21.0036 14.5874H17.84V14.0874M21.43 15.0874L21.675 5.98343M17.84 19.3092H17.34V28.494C17.5074 28.4674 17.6741 28.4381 17.84 28.4059M17.84 19.3092V28.4059M17.84 19.3092H20.835H21.2614L21.3287 18.8882L22.0037 14.6663L22.0963 14.0874H21.51H17.84M17.84 28.4059C21.0331 27.7877 23.9231 26.144 26.0392 23.7349C28.2815 21.1821 29.5077 17.938 29.5 14.5885L29.5 14.5874C29.5 6.82645 22.9877 0.5 15 0.5C7.01227 0.5 0.5 6.82645 0.5 14.5874C0.5 21.4103 5.50501 27.1229 12.16 28.4065V19.3092H8.84999H8.34999V18.8092V14.5874V14.0874H8.84999H12.16V11.37C12.16 9.43927 12.753 7.88241 13.8586 6.80931C14.9618 5.73861 16.5163 5.20683 18.33 5.20683C19.1727 5.20683 20.0288 5.27792 20.67 5.3481C20.9916 5.3833 21.2614 5.41852 21.4513 5.44501C21.5463 5.45827 21.6214 5.46935 21.6732 5.47718L21.7328 5.48636L21.7487 5.48887L21.753 5.48956L21.7542 5.48975L21.7546 5.48981L21.7547 5.48984L21.675 5.98343M17.84 14.0874V11.8504C17.84 11.3522 17.9672 10.9197 18.2379 10.6167C18.4988 10.3245 18.9589 10.0793 19.785 10.0793H21.675H22.175V9.57932V5.98343V5.55781L21.7548 5.48985L21.675 5.98343M17.84 14.0874H17.34V11.8504C17.34 10.7003 17.925 9.57932 19.785 9.57932H21.175H21.675V9.07932V5.98343" fill="white" stroke="white"/>
</svg>
