<svg width="32" height="21" viewBox="0 0 32 21" fill="none" xmlns="http://www.w3.org/2000/svg">
<path d="M31.3407 3.286C30.9719 2.00107 29.8911 0.988179 28.5204 0.642188C26.0163 0 15.9996 0 15.9996 0C15.9996 0 5.98341 0 3.4793 0.617841C2.13496 0.963466 1.02774 2.00126 0.658986 3.286C0 5.63288 0 10.5 0 10.5C0 10.5 0 15.3917 0.658986 17.714C1.02813 18.9987 2.1086 20.0116 3.4795 20.3576C6.00978 21 16 21 16 21C16 21 26.0163 21 28.5204 20.3822C29.8913 20.0364 30.9719 19.0235 31.3411 17.7387C31.9999 15.3917 31.9999 10.5247 31.9999 10.5247C31.9999 10.5247 32.0262 5.63288 31.3407 3.286ZM12.8106 14.9964V6.00358L21.1399 10.5L12.8106 14.9964Z" fill="white"/>
</svg>
