<svg width="27" height="26" viewBox="0 0 27 26" fill="none" xmlns="http://www.w3.org/2000/svg">
<path d="M23.25 22.8889H23.75V22.3889V14.7333C23.75 13.3456 23.1774 12.0188 22.1646 11.0435C21.1524 10.0688 19.7836 9.52444 18.36 9.52444C17.3515 9.52444 16.2371 9.93416 15.38 10.6219V10.2989V9.79889H14.88H10.695H10.195V10.2989V22.3889V22.8889H10.695H14.88H15.38V22.3889V15.2678C15.38 14.4447 16.0729 13.7456 16.965 13.7456C17.3953 13.7456 17.8044 13.9103 18.1031 14.198C18.4012 14.4851 18.565 14.8703 18.565 15.2678V22.3889V22.8889H19.065H23.25ZM7.905 22.8889H8.405V22.3889V10.2989V9.79889H7.905H3.75H3.25V10.2989V22.3889V22.8889H3.75H7.905ZM24 0.5C24.669 0.5 25.307 0.756094 25.7745 1.2063C26.2414 1.65588 26.5 2.26154 26.5 2.88889V23.1111C26.5 23.7385 26.2414 24.3441 25.7745 24.7937C25.307 25.2439 24.669 25.5 24 25.5H3C2.331 25.5 1.69302 25.2439 1.2255 24.7937C0.758625 24.3441 0.5 23.7385 0.5 23.1111V2.88889C0.5 2.26154 0.758625 1.65588 1.2255 1.2063C1.69302 0.756094 2.331 0.5 3 0.5H24ZM5.82 8.53111C6.61499 8.53111 7.38105 8.22718 7.94873 7.68052C8.51706 7.13324 8.84 6.38686 8.84 5.60444C8.84 3.97115 7.47712 2.66333 5.82 2.66333C5.02103 2.66333 4.25116 2.96879 3.68066 3.51816C3.10952 4.06814 2.785 4.81819 2.785 5.60444C2.785 7.24532 4.17075 8.53111 5.82 8.53111Z" fill="white" stroke="white"/>
</svg>
